<?xml version="1.0" standalone="no"?><!DOCTYPE svg PUBLIC "-//W3C//DTD SVG 1.1//EN" "http://www.w3.org/Graphics/SVG/1.1/DTD/svg11.dtd"><svg t="1608722004368" class="icon" viewBox="0 0 1024 1024" version="1.1" xmlns="http://www.w3.org/2000/svg" p-id="2965" xmlns:xlink="http://www.w3.org/1999/xlink" width="200" height="200"><defs><style type="text/css"></style></defs><path d="M926.996 510.543S729.322 256.966 510.872 256.966c-57.598 0-113.594 17.634-164.83 43.596L214.651 169.17l-45.197 45.197 119.494 119.494C175.66 408.485 97.004 510.543 97.004 510.543S292.426 767.29 510.872 767.29c58.128 0 114.785-18.181 166.639-44.865l131.974 131.974 45.197-45.197-120.338-120.339c113.491-75.504 192.652-178.32 192.652-178.32z m-416.124 199.84c-159.704 0-299.215-148.691-341.438-200.094 24.507-28.765 81.795-91.543 156.779-139.163l83.789 83.789c-9.658 17.014-15.203 36.586-15.203 57.309 0 64.25 53.238 117.485 117.485 117.485 20.722 0 40.295-5.544 57.309-15.203l67.122 67.122c-39.339 17.444-81.82 28.755-125.843 28.755z m62.351-182.641l-74.624-74.624a64.246 64.246 0 0 1 13.685-1.476c34.882 0 62.414 27.539 62.414 62.418 0 4.714-0.519 9.287-1.475 13.682z m-43.952 46.443a63.95 63.95 0 0 1-16.987 2.289c-34.876 0-62.411-27.539-62.411-62.414a63.93 63.93 0 0 1 2.289-16.985l77.109 77.11z m166.242 75.848l-80.787-80.787c9.558-16.947 15.041-36.416 15.041-57.021 0-64.254-53.234-117.488-117.484-117.488-20.606 0-40.076 5.483-57.023 15.043l-70.432-70.432c39.395-17.659 81.946-29.149 126.043-29.149 159.707 0 299.222 148.692 341.441 200.09-24.509 29.839-81.805 92.454-156.799 139.744z" p-id="2966"></path></svg>